<?xml version="1.0" standalone="no"?>
<!DOCTYPE svg PUBLIC "-//W3C//DTD SVG 20010904//EN"
 "http://www.w3.org/TR/2001/REC-SVG-20010904/DTD/svg10.dtd">
<svg version="1.0" xmlns="http://www.w3.org/2000/svg"
 width="142.000000pt" height="142.000000pt" viewBox="0 0 142.000000 142.000000"
 preserveAspectRatio="xMidYMid meet">
<metadata>
Created by potrace 1.14, written by Peter Selinger 2001-2017
</metadata>
<g transform="translate(0.000000,142.000000) scale(0.100000,-0.100000)"
fill="#000000" stroke="none">
<path d="M985 1392 c-55 -3 -47 5 -115 -117 -15 -27 -82 -143 -148 -257 -66
-115 -117 -210 -114 -212 16 -9 214 -2 224 8 5 6 31 49 58 95 l48 84 24 -39
c14 -21 44 -73 67 -114 111 -198 239 -414 247 -417 7 -2 94 138 112 179 2 5
-49 99 -113 211 -65 111 -129 222 -143 247 -14 25 -37 65 -52 89 l-27 43 53
92 c30 50 54 96 54 101 0 10 -76 13 -175 7z"/>
<path d="M361 1170 c-10 -14 -58 -95 -106 -180 -49 -85 -117 -204 -152 -263
-35 -60 -63 -114 -62 -120 0 -7 24 -52 53 -102 l53 -90 226 -2 227 -2 -25 47
c-14 26 -37 70 -53 97 l-29 50 -111 3 c-62 1 -112 4 -112 6 0 2 63 114 141
248 166 287 189 328 186 329 -1 1 -51 2 -110 3 -106 1 -109 1 -126 -24z"/>
<path d="M883 516 c-29 -52 -53 -99 -53 -104 0 -6 23 -48 50 -95 28 -47 50
-88 50 -91 0 -3 -150 -7 -334 -8 l-333 -3 48 -85 c26 -47 52 -90 57 -96 7 -8
114 -11 347 -11 l337 0 29 46 c16 25 41 69 56 98 l27 52 -21 38 c-11 21 -31
56 -43 78 -36 64 -161 275 -163 275 -1 0 -26 -43 -54 -94z"/>
</g>
</svg>
